<?xml version="1.0" encoding="UTF-8" standalone="no"?>
<svg
   xmlns:dc="http://purl.org/dc/elements/1.1/"
   xmlns:cc="http://creativecommons.org/ns#"
   xmlns:rdf="http://www.w3.org/1999/02/22-rdf-syntax-ns#"
   xmlns:svg="http://www.w3.org/2000/svg"
   xmlns="http://www.w3.org/2000/svg"
   xmlns:sodipodi="http://sodipodi.sourceforge.net/DTD/sodipodi-0.dtd"
   xmlns:inkscape="http://www.inkscape.org/namespaces/inkscape"
   width="7357.5405"
   height="962.10638"
   version="1.1"
   id="svg138"
   sodipodi:docname="connaxio_logo_black.svg"
   inkscape:version="0.92.5 (2060ec1f9f, 2020-04-08)"
   inkscape:export-filename="/media/veracrypt1/NextCloud/malalonde_connaxio/Connaxio/Entrepreneuriat/Marketing/src/connaxio_logo_black_2294x300.png"
   inkscape:export-xdpi="29.931742"
   inkscape:export-ydpi="29.931742">
  <metadata
     id="metadata142">
    <rdf:RDF>
      <cc:Work
         rdf:about="">
        <dc:format>image/svg+xml</dc:format>
        <dc:type
           rdf:resource="http://purl.org/dc/dcmitype/StillImage" />
        <dc:title />
      </cc:Work>
    </rdf:RDF>
  </metadata>
  <sodipodi:namedview
     pagecolor="#ffffff"
     bordercolor="#666666"
     borderopacity="1"
     objecttolerance="10"
     gridtolerance="10"
     guidetolerance="10"
     inkscape:pageopacity="0"
     inkscape:pageshadow="2"
     inkscape:window-width="2560"
     inkscape:window-height="1403"
     id="namedview140"
     showgrid="false"
     inkscape:zoom="0.14866305"
     inkscape:cx="2660.2476"
     inkscape:cy="1171.9517"
     inkscape:window-x="0"
     inkscape:window-y="0"
     inkscape:window-maximized="1"
     inkscape:current-layer="g136"
     inkscape:showpageshadow="false"
     inkscape:pagecheckerboard="true" />
  <desc
     id="desc2">/media/veracrypt1/NextCloud/malalonde_connaxio/Connaxio/Entrepreneuriat/Marketing/src/connaxio_logo_20220414.dxf - scale = 25.400000, origin = (0.000000, 0.000000), method = file</desc>
  <defs
     id="defs16">
    <marker
       id="DistanceX"
       orient="auto"
       refX="0"
       refY="0"
       style="overflow:visible">
      <path
         d="M 3,-3 -3,3 M 0,-5 V 5"
         style="stroke:#000000;stroke-width:0.5"
         id="path4"
         inkscape:connector-curvature="0" />
    </marker>
    <pattern
       height="8"
       id="Hatch"
       patternUnits="userSpaceOnUse"
       width="8"
       x="0"
       y="0">
      <path
         d="M8 4 l-4,4"
         linecap="square"
         stroke="#000000"
         stroke-width="0.25"
         id="path7" />
      <path
         d="M6 2 l-4,4"
         linecap="square"
         stroke="#000000"
         stroke-width="0.25"
         id="path9" />
      <path
         d="M4 0 l-4,4"
         linecap="square"
         stroke="#000000"
         stroke-width="0.25"
         id="path11" />
    </pattern>
    <symbol
       id="*MODEL_SPACE" />
    <symbol
       id="*PAPER_SPACE" />
  </defs>
  <g
     inkscape:groupmode="layer"
     inkscape:label="0"
     id="g18"
     transform="translate(1497.1673,-642.0073)" />
  <g
     inkscape:groupmode="layer"
     inkscape:label="none"
     id="g20"
     transform="translate(1497.1673,-642.0073)" />
  <g
     inkscape:groupmode="layer"
     inkscape:label="Sketch"
     id="g136"
     transform="translate(1497.1673,-642.0073)">
    <path
       style="fill:#000000;fill-opacity:1;stroke:#000000;stroke-opacity:0"
       d="M 480.44531,0.5 C 279.63213,0.43353506 97.995203,126.16838 28.955078,317.76562 -44.687222,522.13453 28.1468,750.46837 206.5,874.50977 384.8533,998.55117 624.26121,987.37595 790.23047,847.21875 956.20093,707.06055 1007.3382,472.87617 914.90039,276.27344 L 677.55273,617.54492 c -75.68238,108.818 -225.25016,135.6813 -334.06835,60 -108.8183,-75.6812 -135.68055,-225.24796 -59.99805,-334.0664 L 520.83594,2.2089844 C 507.30561,1.0685575 493.83286,0.504431 480.44531,0.5 Z m 249.29492,0.007813 c -37.52566,0.39297306 -74.30392,18.332565 -97.36328,51.488281 l -250.375,359.999996 c -37.8592,54.4092 -24.43332,129.20819 29.98438,167.05469 54.4177,37.8466 129.21305,24.40462 167.04883,-30.02148 l 250.375,-360 c 37.84081,-54.40905 24.40913,-129.192586 -30,-167.033206 C 778.15659,7.2146055 753.79515,0.25590637 729.74023,0.507813 Z M 1497.168,0.511719 c -127.3039,0 -249.3947,50.572433 -339.4121,140.589841 -90.0175,90.01741 -140.5879,212.10625 -140.5879,339.41016 0,127.3039 50.5704,249.39471 140.5879,339.41211 90.0174,90.0174 212.1082,140.58789 339.4121,140.58789 127.3039,0 249.3927,-50.57049 339.4101,-140.58789 90.0175,-90.0174 140.5899,-212.10821 140.5899,-339.41211 0,-127.30391 -50.5724,-249.39275 -140.5899,-339.41016 C 1746.5607,51.084152 1624.4719,0.51171875 1497.168,0.511719 Z m 1016.6484,0 c -127.3039,0 -249.3927,50.572433 -339.4102,140.589841 -90.0174,90.01741 -140.5884,212.10625 -140.5898,339.41016 v 480 h 240 v -480 c 10e-4,-132.54843 107.4517,-240 240,-240 132.5483,0 240,107.45157 240,240 v 480 h 240 v -480 c 0,-127.30391 -50.5705,-249.39275 -140.5879,-339.41016 C 2763.211,51.084152 2641.1203,0.51171875 2513.8164,0.511719 Z m 1016.6406,0 c -127.3039,0 -249.3946,50.572433 -339.4121,140.589841 -90.0174,90.01741 -140.5879,212.10625 -140.5879,339.41016 v 480 h 240 v -480 c 0,-132.54843 107.4517,-240 240,-240 132.5483,0 240,107.45157 240,240 v 480 h 240 v -480 c 0,-127.30391 -50.5705,-249.39275 -140.5879,-339.41016 C 3779.8516,51.084152 3657.7609,0.51171875 3530.457,0.511719 Z m 1016.6504,0 c -82.8718,2.125e-5 -165.7444,21.436648 -240,64.308593 -148.511,85.743838 -239.9941,244.204158 -239.9941,415.691408 0,171.4872 91.4831,329.94946 239.9941,415.69336 148.5111,85.7439 331.4875,85.7435 480,0 v 64.30664 h 240 V 0.51171875 h -240 V 64.820312 c -74.2562,-42.87178 -157.1282,-64.3086145 -240,-64.308593 z m 536.6485,0 333.83,480.000001 -333.83,480 h 292.3398 l 187.6602,-269.83203 187.6601,269.83203 h 292.3399 l -333.8301,-480 L 6043.7559,0.51171875 H 5751.416 L 5563.7559,270.34375 5376.0957,0.51171875 Z m 1016.6503,0 V 960.51172 l 240,-345.08399 V 0.51171875 Z m 776.1192,0 c -5.6543,0.007005 -11.3224,0.11279781 -17.002,0.3203125 L 6421.248,631.00391 c 57.0221,172.7027 206.7536,298.34441 386.7305,324.51171 179.9767,26.16731 359.2825,-51.63421 463.125,-200.94531 103.8425,-149.3111 114.3848,-344.48363 27.2227,-504.10547 C 7213.8878,95.83108 7051.8081,0.29457185 6876.5254,0.511719 Z M 6757.5527,15.623047 C 6527.2344,74.822827 6374.9845,293.73822 6399.6348,530.26172 Z M 1497.168,240.51172 c 132.5483,0 240,107.45157 240,240 0,132.5484 -107.4517,240 -240,240 -132.5484,0 -240,-107.4516 -240,-240 0,-132.54843 107.4516,-240 240,-240 z m 3049.9394,0 c 132.5483,0 240,107.45157 240,240 0,132.5484 -107.4517,240 -240,240 -132.5483,0 -240,-107.4516 -240,-240 0,-132.54843 107.4517,-240 240,-240 z m 2329.9375,0 c 132.5483,0 240,107.45157 240,240 0,132.5484 -107.4517,240 -240,240 -132.5483,0 -240,-107.4516 -240,-240 0,-132.54843 107.4517,-240 240,-240 z M 6340.4062,747.25 6192.0859,960.51172 h 148.3203 z"
       transform="translate(-1497.1673,642.00733)"
       id="path32"
       inkscape:connector-curvature="0" />
  </g>
</svg>
